The Last Temptation of Christ (1988) The Criterion Collection

Director: Martin Scorsese

At last, Martin Scorsese’s most personal masterpiece can be seen outside of the controversy it engendered, and be seen for what it is,a fifteen year labor of love. Nikos Kazantzakis’s landmark novel comes to breathtaking life in this moving and spiritual film. The all star cast includes Harvey Keitel, Barbara Hershey, Harry Dean Stanton, David Bowie, and Willem Dafoe as Jesus. Criterion is proud to present this cinematic treasure in an exclusive director approved special edition.

Martin Scorsese had wanted to make a film version of Jesus' life since childhood. Scorsese optioned the novel The Last Temptation in the late 1970s, and he gave it to Paul Schrader to adapt. The Last Temptation was originally to be Scorsese's follow up to The King of Comedy; production was slated to begin in 1983 for Paramount, with a budget of about 14 million dollars and shot on location in Israel. The original cast included Aidan Quinn as Jesus, Sting as Pontius Pilate, Ray Davies as Judas Iscariot, and Barbara Hershey as Mary Magdalene. Management at Paramount and its parent company, Gulf + Western became uneasy due to the ballooning budget for the picture and protest letters received from religious groups. The project went into turnaround and was finally canceled in December 1983. Scorsese went on to make After Hours instead.

In 1986, Universal Pictures became interested in the project. Scorsese offered to shoot the film in 58 days for $7 million, and Universal greenlighted the production. Critic and screenwriter Jay Cocks worked with Scorsese to revise Schrader's script. Aidan Quinn passed on the role of Jesus, and Scorsese recast Willem Dafoe in the part. Sting also passed on the role of Pilate, with the role being recast with David Bowie. Principal photography began in October 1987. The location shoot in Morocco ,a first for Scorsese, was difficult, and the difficulties were compounded by the hurried schedule. We worked in a state of emergency, Scorsese recalled. Scenes had to be improvised and worked out on the set with little deliberation, leading Scorsese to develop a minimalist aesthetic for the film. Shooting wrapped by December 25.
The film opened on August 12, 1988.

Media Info:
General
Complete name                    : J:\Seeding\The Last Temptation of Christ (1988)[DVDRip][big_dad_e]\The Last Temptation of Christ (1988)[DVDRip][big_dad_e].avi
Format                           : AVI
Format/Info                      : Audio Video Interleave
File size                        : 1.53 GiB
Duration                         : 2h 43mn
Overall bit rate                 : 1 342 Kbps

Video
ID                               : 0
Format                           : MPEG-4 Visual
Format profile                   : Simple@L1
Format settings, BVOP            : No
Format settings, QPel            : No
Format settings, GMC             : No warppoints
Format settings, Matrix          : Default (H.263)
Codec ID                         : DIVX
Codec ID/Info                    : Project Mayo
Codec ID/Hint                    : DivX 4
Duration                         : 2h 43mn
Bit rate                         : 1 200 Kbps
Width                            : 720 pixels
Height                           : 480 pixels
Display aspect ratio             : 16:9
Frame rate                       : 29.970 fps
Standard                         : NTSC
Color space                      : YUV
Chroma subsampling               : 4:2:0
Bit depth                        : 8 bits
Scan type                        : Progressive
Bits/(Pixel*Frame)               : 0.116
Stream size                      : 1.37 GiB (89%)
Writing library                  : avc2.0.11.1110

Audio
ID                               : 1
Format                           : MPEG Audio
Format version                   : Version 1
Format profile                   : Layer 3
Mode                             : Joint stereo
Mode extension                   : MS Stereo
Codec ID                         : 55
Codec ID/Hint                    : MP3
Duration                         : 2h 43mn
Bit rate mode                    : Constant
Bit rate                         : 128 Kbps
Channel(s)                       : 2 channels
Sampling rate                    : 48.0 KHz
Stream size                      : 150 MiB (10%)
Alignment                        : Aligned on interleaves
Interleave, duration             : 24 ms (0.72 video frame)
Writing library                  : LAME3.96.1

File Scan:
Malwarebytes' Anti-Malware 1.46
www.malwarebytes.org

Database version: 5102

Windows 5.1.2600 Service Pack 3
Internet Explorer 8.0.6001.18702

11/12/2010 6:12:51 PM
mbam-log-2010-11-12 (18-12-51).txt

Scan type: Quick scan
Objects scanned: 6
Time elapsed: 12 second(s)

Memory Processes Infected: 0
Memory Modules Infected: 0
Registry Keys Infected: 0
Registry Values Infected: 0
Registry Data Items Infected: 0
Folders Infected: 0
Files Infected: 0

Memory Processes Infected:
(No malicious items detected)

Memory Modules Infected:
(No malicious items detected)

Registry Keys Infected:
(No malicious items detected)

Registry Values Infected:
(No malicious items detected)

Registry Data Items Infected:
(No malicious items detected)

Folders Infected:
(No malicious items detected)

Files Infected:
(No malicious items detected)

When using TPB please read these important notes:
  
01- Anti-malware apps may warn about keygens, patches, cracks, etc., because of 
    their capabilities, (generating codes, etc.). Sometimes they're added to 
    the virus/spyware database and will be detected as malware. If you don't trust
    the keygens, patches, cracks, etc., don't use them. 
    
02- Before running .exe-files, keygens, patches, cracks, etc., always check first 
    if they can be unpacked. Often some third party added a virus to the 
    original file, repacked it and uploaded it again.

03- Letting anti-malware apps send scan results to their companies can cause
    keygens, patches, cracks, etc., to be added to their virus-database.

04- Firewalls which are set to automatically determine connections will allow 
    apps & malware!. Avoid this by manually configuring your firewall.

05- Usually (new) torrents with many downloads and seeders in a brief period is
    suspicious! Torrents with the Skull & Crossbones icon are trusted.

06- Some people use multiple accounts and post fake comments 
    and/or files trying to spread confusion. They seldom seriously
    comment or have any torrents, or a just a few to look passable.

07- Clicking on unknown links can cause malware to be installed on your machine.
  
08- In general often there are more fake and negative comments than reliable and
    positive comments.

09- In some countries uploading/downloading copyright protected material is 
    forbidden, but showing some appreciation to reliable up-loaders is not.

10- Posting fake and negative comments or fake/infected uploads on TPB can result
    in getting banned from TPB!

Requests?  Find me on SuprBay.
 

For reporting bad or suspicious torrents:  
http://forum.suprbay.org/forumdisplay.php?fid=29

For more of my torrents: 
https://thepiratebay.org/user/big_dad_e/  (Secured)

All torrents scanned with:
Norton Anti-virus
Malwarebytes' Anti-malware
 
http://www.pirate-party.us/

ALWAYS SEED & THANKS SEEDERS!